<svg width="15" height="15" viewBox="0 0 15 15" fill="none" xmlns="http://www.w3.org/2000/svg">
<g clip-path="url(#clip0_1_256)">
<path d="M14.1588 6.23787C13.7569 6.23787 13.489 6.50928 13.489 6.91638V7.52704C13.489 10.9196 10.8097 13.6336 7.46071 13.6336C4.11169 13.6336 1.43246 10.9196 1.43246 7.52704C1.43246 4.13452 4.11169 1.4205 7.46071 1.4205C8.33146 1.4205 9.13523 1.62405 9.939 1.9633C10.2739 2.09898 10.6758 1.9633 10.8097 1.62405C10.9437 1.2848 10.8097 0.877698 10.4749 0.741987C9.53713 0.334884 8.53242 0.0634766 7.46073 0.0634766C3.3749 0.0634766 0.092865 3.38815 0.092865 7.52704C0.092865 11.6659 3.37492 14.9906 7.46073 14.9906C11.5466 14.9906 14.8286 11.6659 14.8286 7.52704V6.91638C14.8286 6.50928 14.5607 6.23786 14.1588 6.23786V6.23787ZM5.92017 6.3736C5.65223 6.10217 5.25034 6.10217 4.98244 6.3736C4.71454 6.645 4.71452 7.0521 4.98244 7.32349L6.99186 9.359C7.12582 9.49471 7.25979 9.56256 7.46073 9.56256C7.66167 9.56256 7.79563 9.49471 7.92959 9.359L14.6277 2.57396C14.8956 2.30254 14.8956 1.89544 14.6277 1.62405C14.3597 1.35266 13.9579 1.35264 13.6899 1.62405L7.46075 7.93414L5.92019 6.3736H5.92017Z" fill="#2C1258"/>
</g>
<defs>
<clipPath id="clip0_1_256">
<rect width="15" height="15" fill="white"/>
</clipPath>
</defs>
</svg>
