<svg width="19" height="22" viewBox="0 0 19 22" fill="none" xmlns="http://www.w3.org/2000/svg">
<path d="M12.5957 10.9575C12.5957 9.95286 12.2942 9.09293 11.6913 8.37775C11.0883 7.6626 10.3457 7.30501 9.46329 7.30501C8.58093 7.30501 7.83829 7.6626 7.23533 8.37775C6.6324 9.09293 6.32357 9.95286 6.30887 10.9575C6.29415 11.9622 6.60297 12.8221 7.23533 13.5372C7.86769 14.2524 8.61035 14.61 9.46329 14.61C10.3162 14.61 11.0589 14.2524 11.6913 13.5372C12.3236 12.8221 12.6251 11.9622 12.5957 10.9575ZM14.2942 10.9575C14.2942 12.507 13.8236 13.8352 12.8824 14.942C11.9412 16.0488 10.8015 16.5937 9.46329 16.5767C8.12506 16.5597 6.97799 16.0148 6.0221 14.942C5.06622 13.8693 4.59562 12.5411 4.61032 10.9575C4.62502 9.37389 5.09561 8.0457 6.0221 6.97296C6.94856 5.90018 8.09564 5.35529 9.46329 5.33827C10.8309 5.32125 11.9707 5.86615 12.8824 6.97296C13.7942 8.07977 14.2648 9.40796 14.2942 10.9575ZM15.6398 5.1084C15.6398 5.46599 15.5295 5.77249 15.3089 6.02791C15.0883 6.28332 14.8163 6.41104 14.4927 6.41104C14.1692 6.41104 13.9045 6.28332 13.6986 6.02791C13.4927 5.77249 13.3824 5.46599 13.3677 5.1084C13.353 4.75081 13.4633 4.4443 13.6986 4.18889C13.9339 3.93348 14.1986 3.80575 14.4927 3.80575C14.7869 3.80575 15.0589 3.93348 15.3089 4.18889C15.5589 4.4443 15.6692 4.75081 15.6398 5.1084ZM9.46329 1.96673C9.40447 1.96673 9.08828 1.96673 8.51474 1.96673C7.94123 1.96673 7.5074 1.96673 7.21327 1.96673C6.91917 1.96673 6.52209 1.98376 6.0221 2.01782C5.52209 2.05187 5.10298 2.09444 4.76472 2.14552C4.4265 2.19661 4.13237 2.29026 3.88239 2.42649C3.47061 2.61379 3.1103 2.88624 2.8015 3.24384C2.49266 3.60143 2.25001 4.0186 2.07354 4.49539C1.9853 4.76783 1.91178 5.1084 1.85295 5.51705C1.79413 5.92573 1.75001 6.41954 1.7206 6.9985C1.69119 7.57744 1.68383 8.02868 1.69854 8.35221C1.71325 8.67576 1.71325 9.17806 1.69854 9.85921C1.68383 10.5403 1.68383 10.9064 1.69854 10.9575C1.71325 11.0086 1.71325 11.3747 1.69854 12.0558C1.68383 12.7369 1.68383 13.2392 1.69854 13.5628C1.71325 13.8863 1.7206 14.3376 1.7206 14.9165C1.7206 15.4955 1.76472 15.9893 1.85295 16.3979C1.94119 16.8066 2.01472 17.1472 2.07354 17.4196C2.25001 17.8964 2.49266 18.3136 2.8015 18.6712C3.1103 19.0287 3.47061 19.3012 3.88239 19.4885C4.11767 19.5907 4.4118 19.6843 4.76472 19.7695C5.11768 19.8546 5.53681 19.8972 6.0221 19.8972C6.50739 19.8972 6.90444 19.9142 7.21327 19.9483C7.5221 19.9823 7.95593 19.9823 8.51474 19.9483C9.07358 19.9142 9.38977 19.9142 9.46329 19.9483C9.53681 19.9823 9.84564 19.9823 10.3898 19.9483C10.9339 19.9142 11.3677 19.9142 11.6913 19.9483C12.0148 19.9823 12.4118 19.9653 12.8824 19.8972C13.353 19.8291 13.7795 19.7865 14.1619 19.7695C14.5442 19.7525 14.831 19.6588 15.0221 19.4885C15.4339 19.3012 15.8016 19.0287 16.1251 18.6712C16.4486 18.3136 16.6839 17.8964 16.831 17.4196C16.9192 17.1472 16.9928 16.8066 17.0516 16.3979C17.1104 15.9893 17.1545 15.4955 17.1839 14.9165C17.2133 14.3376 17.2207 13.8863 17.206 13.5628C17.1913 13.2392 17.1913 12.7369 17.206 12.0558C17.2207 11.3747 17.2207 11.0086 17.206 10.9575C17.1913 10.9064 17.1913 10.5403 17.206 9.85921C17.2207 9.17806 17.2207 8.67576 17.206 8.35221C17.1913 8.02868 17.1839 7.57744 17.1839 6.9985C17.1839 6.41954 17.1398 5.92573 17.0516 5.51705C16.9633 5.1084 16.8898 4.76783 16.831 4.49539C16.6692 4.0186 16.4339 3.60143 16.1251 3.24384C15.8163 2.88624 15.4486 2.61379 15.0221 2.42649C14.7869 2.32432 14.5001 2.23066 14.1619 2.14552C13.8236 2.06038 13.3971 2.01782 12.8824 2.01782C12.3677 2.01782 11.9707 2.00079 11.6913 1.96673C11.4118 1.93268 10.978 1.93268 10.3898 1.96673C9.80152 2.00079 9.49272 2.00079 9.46329 1.96673ZM18.9045 10.9575C18.9045 13.1371 18.8825 14.6441 18.8383 15.4784C18.7648 17.4537 18.2575 18.9862 17.3163 20.076C16.3751 21.1658 15.0589 21.7532 13.3677 21.8384C12.6324 21.8894 11.3309 21.915 9.46329 21.915C7.59565 21.915 6.29415 21.8894 5.55885 21.8384C3.85296 21.7362 2.52943 21.1487 1.58824 20.076C0.647063 19.0032 0.139707 17.4707 0.066177 15.4784C0.0220589 14.6441 0 13.1371 0 10.9575C0 8.77791 0.0220589 7.27094 0.066177 6.43659C0.139707 4.46132 0.647063 2.92881 1.58824 1.83902C2.52943 0.749232 3.85296 0.161767 5.55885 0.0766267C6.27945 0.025543 7.58092 0 9.46329 0C11.3457 0 12.6471 0.025543 13.3677 0.0766267C15.0736 0.178794 16.3898 0.766261 17.3163 1.83902C18.2427 2.91178 18.7501 4.4443 18.8383 6.43659C18.8825 7.27094 18.9045 8.77791 18.9045 10.9575Z" fill="black"/>
</svg>
