<svg width="14" height="13" viewBox="0 0 14 13" fill="none" xmlns="http://www.w3.org/2000/svg">
<g clip-path="url(#clip0_1_40)">
<path d="M3.16952 4.28556V12.632H0.178794V4.28556H3.16952ZM3.36457 1.70467C3.36457 2.11721 3.20746 2.45931 2.8932 2.73099C2.57896 3.00266 2.17261 3.13851 1.67416 3.13851H1.65791C1.15945 3.13851 0.758518 3.00266 0.455111 2.73099C0.151704 2.45931 0 2.11721 0 1.70467C0 1.29213 0.157122 0.95002 0.471364 0.678347C0.785608 0.406673 1.19196 0.270836 1.69041 0.270836C2.18886 0.270836 2.58981 0.406673 2.8932 0.678347C3.19661 0.95002 3.35374 1.29213 3.36457 1.70467ZM13.9296 7.8475V12.632H10.9552V8.16445C10.9552 7.5708 10.8306 7.10795 10.5813 6.77591C10.3321 6.44387 9.94743 6.27784 9.42731 6.27784C9.04804 6.27784 8.7338 6.37343 8.48456 6.5646C8.23534 6.75577 8.0403 6.99727 7.89942 7.28906C7.83442 7.46012 7.80191 7.68652 7.80191 7.96826V12.632H4.81118C4.82201 10.3882 4.82743 8.57197 4.82743 7.18342C4.82743 5.79486 4.82743 4.96475 4.82743 4.69307L4.81118 4.28556H7.80191V5.49301H7.78565C7.90485 5.31189 8.02947 5.15593 8.15949 5.02511C8.28952 4.89432 8.45748 4.74841 8.66335 4.58743C8.86925 4.42643 9.13473 4.30569 9.4598 4.2252C9.78489 4.14471 10.1316 4.09942 10.5001 4.08937C11.5295 4.08937 12.3584 4.40631 12.9869 5.04021C13.6154 5.67412 13.9296 6.60989 13.9296 7.8475Z" fill="black"/>
</g>
<defs>
<clipPath id="clip0_1_40">
<rect width="14" height="13" fill="white"/>
</clipPath>
</defs>
</svg>
