<svg width="28" height="28" viewBox="0 0 28 28" fill="none" xmlns="http://www.w3.org/2000/svg">
<rect width="28" height="28" fill="#F4AB00"/>
<path d="M18.4697 15.053C17.9874 14.9988 17.5052 14.8902 17.0765 14.7274C16.4871 14.5102 15.8441 14.6731 15.3618 15.1073L14.9867 15.4873C14.0222 14.8359 13.1648 14.0217 12.5218 12.9904L12.8969 12.6104C13.3256 12.1762 13.4863 11.4705 13.272 10.8735C13.1113 10.4392 13.0041 9.95068 12.9505 9.46216C12.8433 8.64796 12.1467 8.05087 11.343 8.05087H9.73544C9.68185 8.05087 9.62827 8.05087 9.57468 8.05087C9.14601 8.10516 8.77091 8.32227 8.50299 8.64796C8.23508 8.97364 8.1279 9.40788 8.1279 9.84212C8.28865 11.5791 8.93167 13.3161 9.84259 14.7817C10.7 16.1387 11.8788 17.3328 13.2184 18.2013C14.6652 19.1784 16.3799 19.7754 18.0946 19.9383C18.1482 19.9383 18.2018 19.9383 18.2554 19.9383C18.684 19.9383 19.1127 19.7754 19.3807 19.4498C19.6486 19.1241 19.8629 18.7441 19.8629 18.3099V16.6815C19.8629 15.8673 19.2735 15.1616 18.4697 15.0531L18.4697 15.053ZM18.7912 16.6815V18.3099C18.7912 18.4727 18.7376 18.5813 18.6305 18.6898C18.5233 18.7984 18.4161 18.8527 18.2018 18.8527C16.6478 18.6898 15.1475 18.147 13.8079 17.2785C12.5754 16.5186 11.5573 15.433 10.7535 14.1845C9.89618 12.8275 9.36034 11.3077 9.19959 9.73356C9.19959 9.57072 9.25317 9.46216 9.30675 9.35359C9.41391 9.24504 9.57467 9.13647 9.73542 9.13647H11.343C11.6109 9.13647 11.8252 9.35359 11.8788 9.62499C11.9324 10.1678 12.0931 10.7649 12.3075 11.2534C12.3611 11.4705 12.3075 11.6876 12.2003 11.8505L11.5037 12.5019C11.343 12.6647 11.2894 12.9361 11.3965 13.1532C12.2003 14.6188 13.3792 15.8129 14.826 16.6272C15.0403 16.7357 15.3082 16.7357 15.469 16.5186L16.1656 15.8129C16.3263 15.6501 16.5407 15.5958 16.755 15.7044C17.2909 15.9215 17.8267 16.0301 18.3625 16.1386C18.5769 16.1929 18.7912 16.41 18.7912 16.6815Z" fill="white"/>
</svg>
