<svg width="11" height="15" viewBox="0 0 11 15" fill="none" xmlns="http://www.w3.org/2000/svg">
<path d="M1.26929 5.3541C1.26929 4.71108 1.35181 4.10558 1.51685 3.53758C1.68189 2.9696 1.9098 2.47125 2.20059 2.04258C2.49137 1.6139 2.82538 1.24417 3.20262 0.933377C3.57985 0.622587 3.9846 0.386816 4.41684 0.22606C4.8491 0.065308 5.29313 -0.00971106 5.74895 0.00100677C6.44056 0.00100677 7.08499 0.19927 7.68229 0.595795C8.27957 0.99232 8.7629 1.57103 9.13228 2.33192C9.50166 3.09283 9.68635 3.95019 9.68635 4.90398C9.68635 5.48269 9.64704 6.04535 9.56846 6.5919C9.48987 7.13846 9.35626 7.66894 9.16764 8.18337C8.97903 8.69777 8.75898 9.14252 8.50748 9.51762C8.25599 9.89271 7.94163 10.2035 7.56439 10.45C7.18716 10.6965 6.77063 10.809 6.3148 10.7876C6.01615 10.7876 5.72144 10.6911 5.43066 10.4982C5.13988 10.3053 4.92768 10.0428 4.79408 9.71052C4.75478 9.94629 4.69584 10.2839 4.61725 10.7233C4.53866 11.1627 4.48364 11.4467 4.45221 11.5753C4.42077 11.7039 4.37755 11.9182 4.32253 12.2183C4.26752 12.5183 4.20857 12.7273 4.1457 12.8452C4.08283 12.9631 4.01603 13.1507 3.94529 13.4078C3.87457 13.6651 3.77239 13.9008 3.6388 14.1152C3.50519 14.3295 3.36765 14.5867 3.22619 14.8868L3.14367 14.935L3.08472 14.8386C3.014 13.8955 2.97863 13.3328 2.97863 13.1507C2.97863 12.6041 3.02579 11.9879 3.12009 11.302C3.21441 10.6161 3.3598 9.75339 3.55627 8.71385C3.75275 7.67431 3.86671 7.06881 3.89815 6.89733C3.75668 6.51152 3.68594 6.00783 3.68594 5.38625C3.68594 4.88256 3.79991 4.41637 4.02782 3.98769C4.25573 3.55902 4.54651 3.33933 4.90018 3.3286C5.16738 3.3286 5.37564 3.45185 5.52498 3.69835C5.67429 3.94483 5.74895 4.25025 5.74895 4.61463C5.74895 5.01115 5.65465 5.57915 5.46603 6.31862C5.27741 7.05808 5.17917 7.62073 5.17131 8.00654C5.17131 8.38162 5.26955 8.69242 5.46603 8.9389C5.6625 9.18538 5.9022 9.30863 6.18513 9.30863C6.42877 9.30863 6.65274 9.23362 6.85708 9.08358C7.06142 8.93354 7.23432 8.72992 7.37578 8.47271C7.51724 8.21552 7.63906 7.93152 7.74122 7.62073C7.84339 7.30994 7.92591 6.98308 7.98878 6.64014C8.05166 6.29719 8.09489 5.96496 8.11847 5.64346C8.14203 5.32194 8.15776 5.02189 8.16561 4.74323C8.16561 3.7144 7.92591 2.91065 7.44651 2.33192C6.9671 1.75322 6.33838 1.46386 5.56033 1.46386C4.68797 1.46386 3.95708 1.84967 3.36765 2.62129C2.77823 3.3929 2.48351 4.3735 2.48351 5.56308C2.48351 5.831 2.51102 6.08821 2.56603 6.33469C2.62105 6.58119 2.67999 6.7741 2.74286 6.9134C2.80573 7.05273 2.86468 7.19204 2.9197 7.33137C2.97471 7.47069 3.00221 7.56179 3.00221 7.60465C3.00221 7.7654 2.97078 7.97973 2.90791 8.24765C2.84502 8.51558 2.76251 8.64954 2.66034 8.64954C2.65248 8.64954 2.61712 8.64419 2.55424 8.63348C2.32633 8.53702 2.12592 8.3709 1.95303 8.13514C1.78013 7.89937 1.64652 7.61537 1.55221 7.28313C1.4579 6.95092 1.38717 6.6294 1.34002 6.31862C1.29286 6.00783 1.26929 5.68633 1.26929 5.3541Z" fill="black"/>
</svg>
