<svg width="28" height="28" viewBox="0 0 28 28" fill="none" xmlns="http://www.w3.org/2000/svg">
<rect width="28" height="28" fill="#F4AB00"/>
<g clip-path="url(#clip0_1_32)">
<path d="M8 15.8841C7.98408 15.7408 8.0398 15.6294 8.16718 15.5498L19.3566 8.08622C19.4202 8.03846 19.4919 8.01457 19.5715 8.01457C19.6511 8.01457 19.7228 8.03846 19.7865 8.08622C19.9059 8.16584 19.9576 8.28923 19.9417 8.45642L18.0788 19.6577C18.0469 19.7612 17.9833 19.8448 17.8877 19.9085C17.832 19.9403 17.7723 19.9563 17.7086 19.9563C17.6608 19.9563 17.6131 19.9483 17.5653 19.9324L13.947 18.4874L13.1827 19.7652C13.1031 19.8926 12.9916 19.9563 12.8483 19.9563C12.705 19.9563 12.5976 19.8926 12.5259 19.7652L11.1526 17.3649L8.23883 16.2066C8.09553 16.1429 8.01592 16.0354 8 15.8841ZM9.17028 15.7528L11.4273 16.6723C11.4432 16.6882 11.4631 16.7002 11.487 16.7081L11.5228 16.732L17.8161 9.9969L9.17028 15.7528ZM11.8094 16.9947L12.8483 18.8099L18.8669 9.41175L11.8094 16.9947ZM13.9947 17.7351C14.0903 17.751 14.1699 17.767 14.2336 17.7829L17.3981 19.0726L18.8908 10.1402L13.9947 17.7351Z" fill="white"/>
</g>
<defs>
<clipPath id="clip0_1_32">
<rect width="12" height="12" fill="white" transform="translate(8 8)"/>
</clipPath>
</defs>
</svg>
