<svg width="15" height="12" viewBox="0 0 15 12" fill="none" xmlns="http://www.w3.org/2000/svg">
<g clip-path="url(#clip0_1_42)">
<path d="M14.894 2.28735C14.4761 2.77534 13.9677 3.19555 13.3691 3.54799C13.3691 3.6203 13.3691 3.72422 13.3691 3.85978C13.3691 4.51948 13.2504 5.17466 13.0132 5.82532C12.776 6.47598 12.4145 7.10405 11.9288 7.70951C11.4431 8.31499 10.8613 8.84366 10.1835 9.29551C9.50574 9.74736 8.69242 10.1179 7.74355 10.407C6.79466 10.6962 5.77237 10.8318 4.67661 10.8137C2.97089 10.8137 1.41202 10.4477 0 9.71572C0.214628 9.7338 0.457496 9.74283 0.728605 9.74283C2.15193 9.74283 3.4171 9.39491 4.52412 8.69906C3.85766 8.69003 3.26461 8.52736 2.74498 8.21106C2.22535 7.89478 1.86387 7.49264 1.66054 7.00464C1.87517 7.03174 2.0672 7.0453 2.23664 7.0453C2.50776 7.0453 2.77887 7.0182 3.04997 6.96397C2.33832 6.84649 1.75091 6.56635 1.28777 6.12353C0.824623 5.68072 0.593049 5.1611 0.593049 4.56465V4.53754C1.0223 4.72732 1.48545 4.83125 1.98248 4.84933C1.56452 4.6234 1.23129 4.33422 0.98277 3.98178C0.734252 3.62933 0.609995 3.24075 0.609995 2.81601C0.609995 2.3732 0.751198 1.96201 1.0336 1.58246C1.80174 2.33253 2.72803 2.93348 3.81247 3.38533C4.89689 3.83718 6.0717 4.08569 7.33689 4.13089C7.28039 3.94111 7.25216 3.75585 7.25216 3.57511C7.25216 2.89733 7.55151 2.32349 8.15021 1.85357C8.74891 1.38365 9.46622 1.14417 10.3021 1.13513C11.1945 1.13513 11.9401 1.39269 12.5388 1.90779C13.2279 1.79935 13.8774 1.60054 14.4874 1.31135C14.2501 1.88972 13.7983 2.34157 13.1318 2.6669C13.7192 2.61268 14.3066 2.48616 14.894 2.28735Z" fill="black"/>
</g>
<defs>
<clipPath id="clip0_1_42">
<rect width="15" height="12" fill="white"/>
</clipPath>
</defs>
</svg>
